<?xml version="1.0" encoding="utf-8"?>
<!-- Generator: Adobe Illustrator 15.0.0, SVG Export Plug-In . SVG Version: 6.00 Build 0)  -->
<!DOCTYPE svg PUBLIC "-//W3C//DTD SVG 1.1//EN" "http://www.w3.org/Graphics/SVG/1.1/DTD/svg11.dtd">
<svg version="1.1" id="Layer_1" xmlns="http://www.w3.org/2000/svg" xmlns:xlink="http://www.w3.org/1999/xlink" x="0px" y="0px"
	 width="166.5px" height="55px" viewBox="147.445 64.14 166.5 55" enable-background="new 147.445 64.14 166.5 55"
	 xml:space="preserve">
<g>
	<path fill="#B39A56" d="M178.716,106.029V81.842h13.499v3.337h-9.565v6.063h9.565v3.452h-9.565v7.814h9.565v3.52H178.716z"/>
	<path fill="#B39A56" d="M236.662,81.842h3.882V96.53c0,2.182,0.504,3.819,1.514,4.915c1.007,1.098,2.514,1.645,4.518,1.645
		c1.994,0,3.494-0.547,4.502-1.645c1.009-1.096,1.513-2.733,1.513-4.915V81.842h3.933v15.051c0,3.271-0.826,5.72-2.479,7.344
		c-1.651,1.625-4.142,2.438-7.469,2.438c-3.326,0-5.81-0.81-7.451-2.429c-1.641-1.619-2.461-4.069-2.461-7.354L236.662,81.842
		L236.662,81.842z"/>
	<path fill="#B39A56" d="M268.369,106.029V81.842h13.498v3.337h-9.566v6.063h9.566v3.452h-9.566v7.814h9.566v3.52H268.369z"/>
	<g>
		<path fill="#B39A56" d="M178.721,117.29l0.023-5.232l0.852,0.004l-0.01,1.932l2.573,0.011l0.009-1.93l0.852,0.004l-0.023,5.231
			l-0.851-0.004l0.011-2.541l-2.572-0.012l-0.012,2.541L178.721,117.29z"/>
		<path fill="#B39A56" d="M192.354,114.746c-0.002,0.371-0.073,0.723-0.214,1.053c-0.142,0.331-0.347,0.625-0.613,0.884
			c-0.271,0.259-0.575,0.456-0.914,0.593c-0.339,0.138-0.694,0.205-1.066,0.203c-0.376-0.002-0.734-0.073-1.075-0.215
			c-0.343-0.141-0.644-0.34-0.903-0.599c-0.267-0.262-0.467-0.557-0.604-0.887c-0.137-0.328-0.204-0.682-0.201-1.059
			c0.001-0.374,0.071-0.727,0.211-1.057c0.141-0.331,0.344-0.627,0.611-0.889c0.269-0.258,0.571-0.454,0.91-0.589
			s0.698-0.201,1.077-0.199c0.376,0.002,0.732,0.071,1.068,0.209c0.338,0.138,0.639,0.337,0.903,0.599
			c0.267,0.266,0.468,0.563,0.605,0.896C192.288,114.025,192.356,114.377,192.354,114.746z M191.468,114.742
			c0.002-0.266-0.046-0.518-0.142-0.756c-0.095-0.238-0.231-0.45-0.413-0.638c-0.176-0.185-0.379-0.327-0.61-0.427
			c-0.231-0.101-0.477-0.15-0.733-0.151c-0.258-0.002-0.502,0.047-0.735,0.144c-0.231,0.097-0.439,0.237-0.622,0.423
			c-0.182,0.183-0.319,0.394-0.417,0.631c-0.097,0.237-0.146,0.49-0.146,0.757c-0.001,0.265,0.045,0.515,0.14,0.751
			c0.094,0.237,0.231,0.448,0.412,0.635c0.18,0.188,0.385,0.329,0.616,0.43c0.229,0.098,0.476,0.147,0.735,0.148
			c0.255,0.001,0.496-0.047,0.729-0.144c0.229-0.098,0.438-0.237,0.621-0.422c0.182-0.187,0.322-0.396,0.42-0.634
			C191.42,115.253,191.467,115.004,191.468,114.742z"/>
		<path fill="#B39A56" d="M197.811,112.865l-0.021,4.512l-0.851-0.004l0.021-4.512l-1.391-0.006l0.003-0.723l3.625,0.017
			l-0.004,0.723L197.811,112.865z"/>
		<path fill="#B39A56" d="M202.605,117.397l0.022-5.231l2.92,0.013l-0.004,0.723l-2.067-0.01l-0.007,1.313l2.068,0.01l-0.003,0.747
			l-2.069-0.01l-0.008,1.689l2.069,0.01l-0.003,0.762L202.605,117.397z"/>
		<path fill="#B39A56" d="M209.282,117.428l0.023-5.232l0.851,0.005l-0.02,4.471l1.899,0.009l-0.003,0.761L209.282,117.428z"/>
		<path fill="#B39A56" d="M219.473,117.461l0.023-5.439l3.311,3.214c0.09,0.092,0.181,0.188,0.272,0.29
			c0.093,0.104,0.189,0.221,0.291,0.35l0.019-3.628l0.784,0.004l-0.023,5.436l-3.377-3.271c-0.09-0.089-0.177-0.184-0.261-0.28
			s-0.164-0.201-0.24-0.309l-0.018,3.639L219.473,117.461z"/>
		<path fill="#B39A56" d="M228.133,117.5l0.023-5.232l0.851,0.004l-0.009,1.931l2.574,0.012l0.008-1.93l0.852,0.004l-0.023,5.231
			l-0.851-0.004l0.012-2.541l-2.573-0.012l-0.012,2.541L228.133,117.5z"/>
		<path fill="#B39A56" d="M239.846,117.553l-0.588-1.351l-2.072-0.01l-0.613,1.346l-0.894-0.004l2.558-5.43l2.506,5.451
			L239.846,117.553z M237.503,115.486l1.458,0.008l-0.529-1.196c-0.03-0.076-0.063-0.164-0.097-0.263
			c-0.031-0.1-0.064-0.209-0.099-0.331c-0.029,0.113-0.06,0.221-0.092,0.318c-0.033,0.1-0.066,0.19-0.101,0.273L237.503,115.486z"/>
		<path fill="#B39A56" d="M248.908,113.068l-0.021,4.512l-0.852-0.004l0.021-4.512l-1.391-0.006l0.003-0.723l3.624,0.017
			l-0.003,0.723L248.908,113.068z"/>
		<path fill="#B39A56" d="M254.51,115.264l-0.012,2.341l-0.797-0.004l0.023-5.231l1.187,0.005c0.349,0.002,0.618,0.025,0.811,0.071
			c0.191,0.047,0.354,0.121,0.489,0.228c0.161,0.128,0.286,0.291,0.373,0.492c0.087,0.199,0.131,0.42,0.13,0.657
			c-0.002,0.42-0.104,0.747-0.309,0.982c-0.204,0.236-0.503,0.378-0.898,0.424l1.79,2.39l-0.962-0.006l-1.729-2.349H254.51z
			 M254.566,114.602l0.154,0.001c0.448,0.002,0.749-0.049,0.896-0.152c0.147-0.104,0.223-0.289,0.224-0.558
			c0.003-0.288-0.075-0.491-0.233-0.608c-0.158-0.119-0.451-0.181-0.881-0.183h-0.153L254.566,114.602z"/>
		<path fill="#B39A56" d="M264.039,117.646l-0.587-1.35l-2.073-0.01l-0.612,1.345l-0.895-0.004l2.56-5.428l2.506,5.449
			L264.039,117.646z M261.697,115.581l1.458,0.007l-0.531-1.196c-0.029-0.076-0.063-0.164-0.095-0.263
			c-0.033-0.101-0.066-0.21-0.099-0.331c-0.029,0.114-0.062,0.221-0.094,0.319s-0.064,0.188-0.1,0.271L261.697,115.581z"/>
		<path fill="#B39A56" d="M268.211,117.666l0.024-5.439l3.31,3.213c0.09,0.091,0.183,0.188,0.273,0.291
			c0.093,0.104,0.188,0.22,0.292,0.349l0.016-3.627l0.786,0.003l-0.022,5.437l-3.377-3.271c-0.092-0.09-0.179-0.183-0.263-0.279
			c-0.084-0.099-0.164-0.201-0.24-0.309l-0.017,3.638L268.211,117.666z"/>
		<path fill="#B39A56" d="M279.782,115.037l2.072,0.01c0,0.035,0.001,0.085,0.003,0.148c0.007,0.169,0.01,0.284,0.01,0.344
			c-0.004,0.735-0.217,1.308-0.641,1.713c-0.424,0.406-1.021,0.606-1.786,0.604c-0.429-0.002-0.813-0.065-1.146-0.194
			c-0.335-0.127-0.629-0.319-0.88-0.575c-0.247-0.254-0.436-0.552-0.565-0.894c-0.131-0.341-0.195-0.706-0.193-1.095
			c0.002-0.395,0.07-0.76,0.207-1.092c0.136-0.334,0.337-0.627,0.603-0.881c0.257-0.249,0.557-0.438,0.899-0.567
			c0.344-0.13,0.711-0.193,1.102-0.191c0.412,0.002,0.781,0.078,1.105,0.229s0.613,0.383,0.867,0.693l-0.624,0.466
			c-0.175-0.206-0.374-0.358-0.595-0.46c-0.222-0.103-0.47-0.152-0.742-0.153c-0.568-0.003-1.031,0.177-1.393,0.538
			c-0.359,0.362-0.542,0.834-0.544,1.415c-0.003,0.591,0.174,1.071,0.531,1.441c0.356,0.368,0.821,0.556,1.393,0.558
			c0.486,0.002,0.869-0.108,1.149-0.334c0.279-0.225,0.42-0.533,0.422-0.924l0.001-0.075l-1.258-0.005L279.782,115.037z"/>
	</g>
	<polygon fill="#B39A56" points="221.146,81.842 221.146,98.226 203.154,80.883 203.154,106.029 206.771,106.029 206.771,89.656 
		224.78,106.971 224.78,81.842 	"/>
	<polygon fill="#B39A56" points="165.777,81.842 159.076,97.743 152.346,81.842 148.265,81.842 159.054,106.971 169.842,81.842 	"/>
	<g>
		<path fill="#B39A56" d="M313.47,92.615c-6.93-8.047-15.766-13.021-15.766-13.021c-3.128,16.216-9.918,26.409-9.942,26.432
			c0.263-0.097,0.514-0.191,0.771-0.288C291.62,104.561,303.749,100.469,313.47,92.615z"/>
		<path fill="#B39A56" d="M287.762,106.024c0.62,1.231,4.004,7.457,10.979,11.866c11.161-7.194,13.826-17.746,14.446-21.682
			C300.864,103.963,287.762,106.024,287.762,106.024z"/>
		<path fill="#B39A56" d="M298.931,64.389c-0.032,5.803-0.506,10.83-1.227,15.204c0,0,6.619,1.311,15.663,8.978
			C311.854,73.508,298.931,64.389,298.931,64.389z"/>
	</g>
</g>
</svg>
